<svg xmlns="http://www.w3.org/2000/svg" width="1200" height="630" viewBox="0 0 1200 630" role="img" aria-labelledby="title desc">
  <title id="title">日本制縣圖：我的 47 都道府縣足跡</title>
  <desc id="desc">以 0 至 5 級記錄日本旅行經驗的社群分享圖片</desc>
  <defs>
    <linearGradient id="bg" x1="0" y1="0" x2="1" y2="1">
      <stop offset="0" stop-color="#0f1419" />
      <stop offset="1" stop-color="#252b3b" />
    </linearGradient>
    <pattern id="grid" width="44" height="44" patternUnits="userSpaceOnUse">
      <path d="M44 0H0V44" fill="none" stroke="#ffffff" stroke-opacity=".035" />
    </pattern>
    <pattern id="empty" width="12" height="12" patternUnits="userSpaceOnUse" patternTransform="rotate(45)">
      <rect width="12" height="12" fill="#252b35" />
      <rect width="4" height="12" fill="#39404c" />
    </pattern>
  </defs>
  <rect width="1200" height="630" fill="url(#bg)" />
  <rect width="1200" height="630" fill="url(#grid)" />
  <path d="M72 82H188" stroke="#ff8c61" stroke-width="8" stroke-linecap="round" />
  <text x="72" y="194" fill="#ff8c61" font-family="JetBrains Mono, monospace" font-size="24" font-weight="600" letter-spacing="5">JAPAN PREFECTURE LOG</text>
  <text x="72" y="300" fill="#ffffff" font-family="Inter, Noto Sans TC, sans-serif" font-size="70" font-weight="700">日本制縣圖</text>
  <text x="76" y="367" fill="#d1d5db" font-family="Inter, Noto Sans TC, sans-serif" font-size="30">我的 47 都道府縣足跡</text>
  <g transform="translate(78 442)">
    <rect width="48" height="48" rx="9" fill="url(#empty)" />
    <rect x="62" width="48" height="48" rx="9" fill="#ffe3d6" />
    <rect x="124" width="48" height="48" rx="9" fill="#ffc1a5" />
    <rect x="186" width="48" height="48" rx="9" fill="#ff9a6f" />
    <rect x="248" width="48" height="48" rx="9" fill="#f66f41" />
    <rect x="310" width="48" height="48" rx="9" fill="#c9461f" />
    <text x="179" y="82" fill="#ffb4a2" font-family="JetBrains Mono, monospace" font-size="20" text-anchor="middle">LEVEL 0 — 5</text>
  </g>
  <g transform="translate(725 73)" stroke="#0f1419" stroke-width="6" stroke-linejoin="round">
    <path d="M351 1h78v66h-40l-38 24-32-24h-26V34h58z" fill="#ff9a6f" />
    <path d="M326 101h79v47h-79zM326 148h79v50h-79zM326 198h79v49h-79z" fill="#ffc1a5" />
    <path d="M270 247h135v54H270zM223 301h75v61h-75zM298 301h55v61h-55zM353 301h52v72h-52z" fill="#ff9a6f" />
    <path d="M181 362h224v42H181zM215 404h141v45H215z" fill="#f66f41" />
    <path d="M132 337h49v67h-49zM83 337h49v67H83zM34 337h49v67H34z" fill="#ffe3d6" />
    <path d="M72 420h166v46H72zM16 466h144v48H16z" fill="#c9461f" />
    <rect x="0" y="526" width="52" height="31" rx="4" fill="#ffc1a5" />
  </g>
  <text x="1128" y="574" fill="#ffb4a2" font-family="JetBrains Mono, monospace" font-size="20" text-anchor="end">PURR.TW / JAPAN</text>
</svg>
